<svg width="138" height="35" viewBox="0 0 138 35" fill="none" xmlns="http://www.w3.org/2000/svg">
<path d="M131.077 21.7734H134.627V22.8809H132.306V23.9561H134.627V25.0433H132.306V26.6076H134.627V27.7191H131.077V21.7734Z" fill="#C83B1F"/>
<path d="M129.994 22.8136L129.127 23.5694C128.538 23.0009 127.874 22.7166 127.138 22.7166C126.516 22.7166 125.991 22.9106 125.564 23.2986C125.139 23.6866 124.927 24.1649 124.927 24.7335C124.927 25.1296 125.021 25.4813 125.21 25.7884C125.398 26.0956 125.665 26.3368 126.01 26.5119C126.355 26.6871 126.738 26.7747 127.16 26.7747C127.519 26.7747 127.848 26.714 128.146 26.5928C128.443 26.4688 128.77 26.2452 129.127 25.9218L129.967 26.7221C129.487 27.1506 129.033 27.4483 128.605 27.6154C128.178 27.7798 127.69 27.8619 127.142 27.8619C126.131 27.8619 125.303 27.5696 124.657 26.9848C124.015 26.3974 123.693 25.6456 123.693 24.7295C123.693 24.1366 123.839 23.6099 124.131 23.1491C124.426 22.6883 124.846 22.3178 125.391 22.0375C125.939 21.7573 126.529 21.6172 127.16 21.6172C127.696 21.6172 128.212 21.7209 128.707 21.9284C129.205 22.1359 129.634 22.431 129.994 22.8136Z" fill="#C83B1F"/>
<path d="M121.389 21.7734H122.618V27.7191H121.389V21.7734Z" fill="#C83B1F"/>
<path d="M114.642 21.7734H115.915L117.551 25.9972L119.209 21.7734H120.482L118.139 27.7191H116.945L114.642 21.7734Z" fill="#C83B1F"/>
<path d="M109.972 21.7734H111.285C112.004 21.7734 112.515 21.8327 112.819 21.9513C113.125 22.0671 113.372 22.2612 113.557 22.5333C113.743 22.8055 113.836 23.1275 113.836 23.4993C113.836 23.8901 113.733 24.2174 113.526 24.4815C113.323 24.7429 113.015 24.9409 112.602 25.0757L114.141 27.7191H112.788L111.325 25.201H111.21V27.7191H109.972V21.7734ZM111.21 24.0975H111.599C111.994 24.0975 112.265 24.0504 112.412 23.9561C112.563 23.8618 112.638 23.7055 112.638 23.4872C112.638 23.3579 112.601 23.246 112.527 23.1517C112.453 23.0547 112.355 22.986 112.231 22.9456C112.107 22.9025 111.88 22.8809 111.55 22.8809H111.21V24.0975Z" fill="#C83B1F"/>
<path d="M105.178 21.7734H108.728V22.8809H106.407V23.9561H108.728V25.0433H106.407V26.6076H108.728V27.7191H105.178V21.7734Z" fill="#C83B1F"/>
<path d="M103.864 22.5751L102.949 23.3148C102.627 22.9052 102.3 22.7004 101.967 22.7004C101.805 22.7004 101.672 22.7408 101.569 22.8217C101.466 22.8998 101.414 22.9887 101.414 23.0884C101.414 23.1881 101.451 23.2825 101.525 23.3714C101.625 23.4899 101.927 23.7446 102.431 24.1353C102.903 24.4964 103.189 24.7241 103.289 24.8184C103.54 25.0501 103.716 25.2724 103.82 25.4853C103.926 25.6955 103.979 25.9259 103.979 26.1765C103.979 26.6642 103.795 27.067 103.426 27.385C103.058 27.703 102.577 27.8619 101.985 27.8619C101.522 27.8619 101.118 27.7582 100.773 27.5507C100.431 27.3432 100.138 27.0172 99.8936 26.5726L100.933 25.9986C101.245 26.5241 101.605 26.7868 102.011 26.7868C102.224 26.7868 102.402 26.7302 102.546 26.617C102.691 26.5039 102.763 26.3732 102.763 26.225C102.763 26.0902 102.708 25.9555 102.599 25.8208C102.49 25.686 102.25 25.4799 101.879 25.2024C101.171 24.6742 100.714 24.2673 100.508 23.9817C100.302 23.6934 100.199 23.4064 100.199 23.1208C100.199 22.7085 100.37 22.3555 100.711 22.0618C101.056 21.7654 101.481 21.6172 101.985 21.6172C102.309 21.6172 102.617 21.6859 102.909 21.8233C103.204 21.9608 103.522 22.2113 103.864 22.5751Z" fill="#C83B1F"/>
<path d="M133.98 11.6484H137.531V12.7559H135.21V13.8311H137.531V14.9183H135.21V16.4826H137.531V17.5941H133.98V11.6484Z" fill="#C83B1F"/>
<path d="M128.137 11.6484H129.379V15.4963C129.379 15.8278 129.41 16.0622 129.472 16.1996C129.537 16.3371 129.641 16.4475 129.786 16.5311C129.933 16.6119 130.11 16.6523 130.316 16.6523C130.535 16.6523 130.722 16.6065 130.878 16.5149C131.037 16.4233 131.146 16.3074 131.205 16.1673C131.267 16.0245 131.298 15.7537 131.298 15.3549V11.6484H132.54V15.1932C132.54 15.7914 132.503 16.2064 132.43 16.4381C132.356 16.6698 132.215 16.8935 132.005 17.1091C131.799 17.3246 131.56 17.485 131.289 17.59C131.018 17.6924 130.703 17.7436 130.343 17.7436C129.871 17.7436 129.46 17.6453 129.109 17.4486C128.762 17.2492 128.513 17.0013 128.362 16.7049C128.212 16.4058 128.137 15.9019 128.137 15.1932V11.6484Z" fill="#C83B1F"/>
<path d="M121.475 11.6484H122.66L125.449 15.561V11.6484H126.687V17.5941H125.498L122.713 13.6936V17.5941H121.475V11.6484Z" fill="#C83B1F"/>
<path d="M116.761 11.6484H120.311V12.7559H117.99V13.8311H120.311V14.9183H117.99V16.4826H120.311V17.5941H116.761V11.6484Z" fill="#C83B1F"/>
<path d="M109.929 11.6484H111.202L112.838 15.8722L114.496 11.6484H115.769L113.426 17.5941H112.232L109.929 11.6484Z" fill="#C83B1F"/>
<path d="M105.71 11.6484H109.26V12.7559H106.939V13.8311H109.26V14.9183H106.939V16.4826H109.26V17.5941H105.71V11.6484Z" fill="#C83B1F"/>
<path d="M100.54 11.6484H101.853C102.572 11.6484 103.084 11.7077 103.387 11.8263C103.694 11.9421 103.94 12.1362 104.126 12.4083C104.311 12.6805 104.404 13.0025 104.404 13.3743C104.404 13.7651 104.301 14.0924 104.095 14.3565C103.891 14.6179 103.583 14.8159 103.171 14.9507L104.709 17.5941H103.356L101.893 15.076H101.778V17.5941H100.54V11.6484ZM101.778 13.9725H102.167C102.562 13.9725 102.833 13.9254 102.981 13.8311C103.131 13.7368 103.206 13.5805 103.206 13.3622C103.206 13.2329 103.169 13.121 103.096 13.0267C103.022 12.9297 102.923 12.861 102.799 12.8206C102.675 12.7775 102.449 12.7559 102.118 12.7559H101.778V13.9725Z" fill="#C83B1F"/>
<path d="M131.788 1.53125H133.044L135.546 7.4769H134.26L133.751 6.2522H131.098L130.568 7.4769H129.281L131.788 1.53125ZM132.425 3.1076L131.558 5.14876H133.287L132.425 3.1076Z" fill="#C83B1F"/>
<path d="M127.181 1.53125H128.41V7.4769H127.181V1.53125Z" fill="#C83B1F"/>
<path d="M122.097 1.53125H123.41C124.129 1.53125 124.64 1.59053 124.944 1.70909C125.25 1.82496 125.497 2.01897 125.682 2.29113C125.868 2.56328 125.961 2.88529 125.961 3.25715C125.961 3.64786 125.858 3.97526 125.651 4.23933C125.448 4.50071 125.14 4.69876 124.727 4.83349L126.266 7.4769H124.913L123.45 4.95879H123.335V7.4769H122.097V1.53125ZM123.335 3.85535H123.724C124.119 3.85535 124.39 3.80819 124.537 3.71388C124.688 3.61957 124.763 3.46328 124.763 3.24502C124.763 3.11568 124.726 3.00385 124.652 2.90954C124.578 2.81254 124.48 2.74382 124.356 2.7034C124.232 2.66029 124.005 2.63873 123.675 2.63873H123.335V3.85535Z" fill="#C83B1F"/>
<path d="M117.308 1.53125H120.858V2.63873H118.537V3.71388H120.858V4.80116H118.537V6.36538H120.858V7.4769H117.308V1.53125Z" fill="#C83B1F"/>
<path d="M115.702 2.50242L114.831 3.2906C114.28 2.75706 113.637 2.4903 112.903 2.4903C112.264 2.4903 111.727 2.68431 111.294 3.07233C110.864 3.46036 110.649 3.93191 110.649 4.487C110.649 5.06095 110.873 5.54733 111.321 5.94613C111.769 6.34493 112.321 6.54433 112.979 6.54433C113.406 6.54433 113.766 6.46215 114.057 6.29778C114.352 6.13341 114.589 5.87607 114.769 5.52577H112.886V4.46275H116.157L116.166 4.71335C116.166 5.23341 116.019 5.72652 115.724 6.19269C115.429 6.65886 115.048 7.01454 114.579 7.25975C114.11 7.50496 113.561 7.62757 112.93 7.62757C112.255 7.62757 111.652 7.49418 111.122 7.22742C110.594 6.95796 110.176 6.57532 109.866 6.07951C109.56 5.58371 109.406 5.04883 109.406 4.47488C109.406 3.68805 109.691 3.00362 110.26 2.42158C110.935 1.72907 111.813 1.38281 112.895 1.38281C113.461 1.38281 113.99 1.47847 114.482 1.66979C114.897 1.83146 115.304 2.10901 115.702 2.50242Z" fill="#C83B1F"/>
<path d="M107.068 1.53125H108.297V7.4769H107.068V1.53125Z" fill="#C83B1F"/>
<path d="M100.464 1.53125H101.649L104.439 5.44382V1.53125H105.677V7.4769H104.487L101.702 3.57646V7.4769H100.464V1.53125Z" fill="#C83B1F"/>
<path d="M2.40489 27.7614H6.16236C6.82645 27.7614 7.36481 27.223 7.36481 26.5589V12.4647L20.4029 26.2553C21.3118 27.2167 22.5764 27.7614 23.8994 27.7614C26.0253 27.7614 27.7487 26.038 27.7487 23.912V2.40489C27.7487 1.07671 26.672 0 25.3439 0H21.9963C21.3323 0 20.7939 0.538354 20.7939 1.20245V15.4235L8.19372 1.7233C7.1836 0.625001 5.75964 0 4.26746 0C1.91061 0 0 1.9106 0 4.26746V25.3565C0 26.6847 1.07671 27.7614 2.40489 27.7614Z" fill="#70757A"/>
<path d="M51.4141 0.171875C54.7345 0.171875 57.4268 2.86411 57.4268 6.18457V13.1865C57.4268 15.7958 55.3114 17.911 52.7021 17.9111L59 27.8838H52.4258C50.7756 27.8838 49.2407 27.0377 48.3594 25.6426L44.8926 20.1533C44.0114 18.7581 42.4764 17.9113 40.8262 17.9111H39.75C39.0859 17.9111 38.5469 18.4502 38.5469 19.1143V26.6816C38.5467 27.3455 38.0096 27.8837 37.3457 27.8838H33.8203C32.4922 27.8837 31.416 26.8066 31.416 25.4785V1.375C31.416 0.710907 31.9541 0.171875 32.6182 0.171875H51.4141ZM39.1094 7.55664C38.4453 7.55664 37.9062 8.09567 37.9062 8.75977V10.0928C37.9062 10.7569 38.4453 11.2949 39.1094 11.2949H49.2998C49.9639 11.2949 50.502 10.7569 50.502 10.0928V8.75977C50.502 8.09567 49.9639 7.55664 49.2998 7.55664H39.1094Z" fill="#70757A"/>
<path d="M88.9831 6.94933V1.36651C88.9831 0.702416 88.4448 0.164062 87.7807 0.164062H67.3203C64.0178 0.164062 61.3335 2.82783 61.3082 6.13021L61.2681 11.3626C61.2425 14.7009 63.9417 17.4209 67.2802 17.4209H80.1934C80.8013 17.4209 81.3036 17.8951 81.3386 18.502C81.3766 19.1604 80.8529 19.7151 80.1934 19.7151H62.5564C61.8923 19.7151 61.354 20.2535 61.354 20.9176V26.5005C61.354 27.1646 61.8923 27.7029 62.5564 27.7029H82.9709C86.2914 27.7029 88.9831 25.0111 88.9831 21.6907V16.6745C88.9831 13.3541 86.2914 10.6623 82.9709 10.6623H69.5478C68.8837 10.6623 68.3453 10.1239 68.3453 9.45984V9.35423C68.3453 8.69013 68.8837 8.15178 69.5478 8.15178H87.7807C88.4448 8.15178 88.9831 7.61343 88.9831 6.94933Z" fill="#70757A"/>
<path d="M94.3486 0.578125V28.6434" stroke="#70757A" stroke-width="1.20245"/>
<path d="M50.816 34.2701H0.123047V30.0234H48.1348L50.816 34.2701ZM0.424674 33.9944H50.2933L47.9599 30.2992H0.424674V33.9944Z" fill="#70757A"/>
<path d="M54.011 34.2701L51.3291 30.0234H61.3713L64.0532 34.2701H54.011Z" fill="#C83B1F"/>
</svg>
