<svg xmlns="http://www.w3.org/2000/svg" viewBox="0 0 120 120" fill="none">
  <rect width="120" height="120" rx="8" fill="#F8F6F2"/>
  <rect x="8" y="8" width="28" height="28" rx="4" stroke="#1C1A17" stroke-width="4"/>
  <rect x="84" y="8" width="28" height="28" rx="4" stroke="#1C1A17" stroke-width="4"/>
  <rect x="8" y="84" width="28" height="28" rx="4" stroke="#1C1A17" stroke-width="4"/>
  <rect x="16" y="16" width="12" height="12" rx="2" fill="#1C1A17"/>
  <rect x="92" y="16" width="12" height="12" rx="2" fill="#1C1A17"/>
  <rect x="16" y="92" width="12" height="12" rx="2" fill="#1C1A17"/>
  <g fill="#6E6860">
    <rect x="44" y="12" width="6" height="6"/><rect x="56" y="12" width="6" height="6"/><rect x="68" y="12" width="6" height="6"/>
    <rect x="44" y="24" width="6" height="6"/><rect x="62" y="24" width="6" height="6"/><rect x="74" y="24" width="6" height="6"/>
    <rect x="50" y="36" width="6" height="6"/><rect x="68" y="36" width="6" height="6"/><rect x="80" y="36" width="6" height="6"/>
    <rect x="44" y="48" width="6" height="6"/><rect x="56" y="48" width="6" height="6"/><rect x="74" y="48" width="6" height="6"/>
    <rect x="44" y="60" width="6" height="6"/><rect x="62" y="60" width="6" height="6"/><rect x="86" y="60" width="6" height="6"/>
    <rect x="50" y="72" width="6" height="6"/><rect x="68" y="72" width="6" height="6"/><rect x="80" y="72" width="6" height="6"/>
    <rect x="44" y="84" width="6" height="6"/><rect x="56" y="84" width="6" height="6"/><rect x="68" y="84" width="6" height="6"/>
    <rect x="62" y="96" width="6" height="6"/><rect x="74" y="96" width="6" height="6"/><rect x="86" y="96" width="6" height="6"/>
  </g>
</svg>
