<svg xmlns="http://www.w3.org/2000/svg" viewBox="0 0 160 32" role="img" aria-label="Google Workspace">
  <path fill="#4285F4" d="M16 8c3.3 0 6 2.7 6 6s-2.7 6-6 6-6-2.7-6-6 2.7-6 6-6z"/>
  <path fill="#EA4335" d="M16 8v12c3.3 0 6-2.7 6-6s-2.7-6-6-6z"/>
  <path fill="#FBBC04" d="M16 20c-3.3 0-6-2.7-6-6h6v6z"/>
  <path fill="#34A853" d="M10 14c0-3.3 2.7-6 6-6v12c-3.3 0-6-2.7-6-6z"/>
  <text x="30" y="21" fill="#5F6368" font-family="Arial, Helvetica, sans-serif" font-size="12" font-weight="600">Google Workspace</text>
</svg>
